<?xml version="1.0" standalone="no"?>
<!DOCTYPE svg PUBLIC "-//W3C//DTD SVG 20010904//EN"
 "http://www.w3.org/TR/2001/REC-SVG-20010904/DTD/svg10.dtd">
<svg version="1.0" xmlns="http://www.w3.org/2000/svg"
 width="120.000000pt" height="120.000000pt" viewBox="0 0 120.000000 120.000000"
 preserveAspectRatio="xMidYMid meet">
<metadata>
Created by potrace 1.11, written by Peter Selinger 2001-2013
</metadata>
<g transform="translate(0.000000,120.000000) scale(0.100000,-0.100000)"
fill="#000000" stroke="none">
<path d="M497 1109 c-115 -18 -411 -137 -446 -180 -10 -12 -17 -32 -15 -43 1
-12 5 -39 8 -60 12 -84 100 -226 141 -226 9 0 30 6 49 14 l32 13 -1 -41 c-2
-36 -9 -121 -20 -226 -11 -103 -7 -170 9 -196 23 -34 106 -71 181 -80 76 -9
263 -9 335 1 72 9 154 46 176 80 16 25 20 87 9 195 -1 19 -6 69 -9 110 -4 41
-9 92 -12 113 -3 31 -1 37 14 37 10 0 22 -3 26 -7 17 -17 57 -13 80 9 45 43
104 173 110 243 3 37 -14 70 -49 93 -19 12 -39 22 -44 22 -5 0 -35 13 -67 29
-33 16 -111 45 -176 66 -122 38 -229 49 -331 34z"/>
</g>
</svg>
