<svg width="407.428" height="407.428" xmlns="http://www.w3.org/2000/svg">
 <g>
  <title>background</title>
  <rect x="-1" y="-1" width="409.428" height="409.428" id="canvas_background" fill="none"/>
 </g>

 <g>
  <title>Layer 1</title>
  <g id="svg_1">
   <path d="m282.555,298.231c12.987,-8.532 24.501,-19.094 34.093,-31.273c19.292,-24.465 30.788,-55.342 30.788,-88.896c0,-79.358 -64.341,-143.699 -143.699,-143.699c-79.376,0 -143.699,64.341 -143.699,143.699c0,33.464 11.442,64.252 30.608,88.68c9.628,12.25 21.196,22.902 34.254,31.47" fill="#CAF5FF" id="svg_2"/>
   <path d="m124.895,303.213c-0.941,0 -1.893,-0.265 -2.738,-0.82c-13.498,-8.856 -25.422,-19.812 -35.443,-32.562c-20.724,-26.414 -31.677,-58.146 -31.677,-91.77c0,-81.993 66.706,-148.699 148.699,-148.699c45.461,0 87.829,20.396 116.239,55.959c1.724,2.157 1.372,5.304 -0.786,7.027c-2.157,1.725 -5.304,1.372 -7.027,-0.786c-26.502,-33.174 -66.022,-52.2 -108.426,-52.2c-76.479,0 -138.699,62.22 -138.699,138.699c0,31.363 10.215,60.961 29.542,85.594c9.348,11.894 20.473,22.115 33.063,30.376c2.309,1.515 2.953,4.615 1.438,6.924c-0.96,1.464 -2.557,2.258 -4.185,2.258z" fill="#333333" id="svg_3"/>
   <path d="m282.559,303.231c-1.627,0 -3.223,-0.793 -4.183,-2.255c-1.517,-2.308 -0.875,-5.408 1.433,-6.924c12.561,-8.252 23.633,-18.409 32.91,-30.188c19.441,-24.654 29.716,-54.323 29.716,-85.802c0,-23.674 -6.068,-47.042 -17.548,-67.576c-1.348,-2.41 -0.486,-5.457 1.924,-6.804c2.409,-1.347 5.456,-0.486 6.804,1.924c12.312,22.022 18.82,47.077 18.82,72.456c0,33.748 -11.018,65.559 -31.861,91.992c-9.943,12.624 -21.811,23.511 -35.273,32.355c-0.847,0.557 -1.8,0.822 -2.742,0.822z" fill="#333333" id="svg_4"/>
   <path d="m171.789,63.627c-2.203,0 -4.22,-1.467 -4.823,-3.694c-0.722,-2.666 0.854,-5.411 3.519,-6.133c10.786,-2.921 21.973,-4.402 33.251,-4.402c6.881,0 13.789,0.556 20.53,1.653c2.726,0.443 4.575,3.013 4.132,5.738s-3.01,4.579 -5.738,4.132c-6.212,-1.011 -12.579,-1.523 -18.924,-1.523c-10.396,0 -20.704,1.364 -30.637,4.055c-0.438,0.117 -0.878,0.174 -1.31,0.174z" fill="#FFFFFF" id="svg_5"/>
   <path d="m325.614,181.275c-2.761,0 -5,-2.239 -5,-5c0,-24.042 -7.243,-47.135 -20.946,-66.781c-13.398,-19.208 -31.973,-33.814 -53.716,-42.241c-2.575,-0.998 -3.854,-3.894 -2.855,-6.469c0.998,-2.575 3.894,-3.853 6.469,-2.855c23.604,9.147 43.766,25 58.305,45.845c14.88,21.332 22.745,46.403 22.745,72.501c-0.002,2.761 -2.24,5 -5.002,5z" fill="#FFFFFF" id="svg_6"/>
   <g id="svg_7">
    <circle cx="112.622" cy="213.394" r="25.275" fill="#F9E33D" id="svg_8"/>
    <circle cx="294.85" cy="213.394" r="25.275" fill="#F9E33D" id="svg_9"/>
   </g>
   <g id="svg_10">
    <path d="m112.622,243.669c-16.694,0 -30.275,-13.582 -30.275,-30.275s13.582,-30.275 30.275,-30.275s30.275,13.581 30.275,30.275s-13.581,30.275 -30.275,30.275zm0,-50.55c-11.18,0 -20.275,9.095 -20.275,20.275s9.096,20.275 20.275,20.275s20.275,-9.096 20.275,-20.275s-9.095,-20.275 -20.275,-20.275z" fill="#666666" id="svg_11"/>
    <path d="m294.85,243.669c-16.694,0 -30.275,-13.582 -30.275,-30.275s13.581,-30.275 30.275,-30.275s30.275,13.581 30.275,30.275s-13.581,30.275 -30.275,30.275zm0,-50.55c-11.18,0 -20.275,9.095 -20.275,20.275s9.095,20.275 20.275,20.275s20.275,-9.096 20.275,-20.275s-9.096,-20.275 -20.275,-20.275z" fill="#666666" id="svg_12"/>
   </g>
   <path d="m195.725,315.533c-48.795,0 -88.493,-39.698 -88.493,-88.492l0,-30.637c0,-48.795 39.698,-88.492 88.493,-88.492l16.011,0c48.795,0 88.493,39.698 88.493,88.492l0,30.637c0,48.795 -39.698,88.492 -88.493,88.492l-16.011,0z" fill="#f26a60" id="svg_13"/>
   <path d="m273.433,202.873l0,28.973c0,34.308 -27.824,62.132 -62.132,62.132l-15.142,0c-34.308,0 -62.132,-27.824 -62.132,-62.132l0,-28.973c0,-34.308 27.824,-62.132 62.132,-62.132l15.142,0c34.309,0 62.132,27.824 62.132,62.132z" fill="#D8B86F" id="svg_14"/>
   <path d="m251.286,202.873l0,28.973c0,34.308 -18.983,62.132 -42.39,62.132l-10.331,0c-23.407,0 -42.39,-27.824 -42.39,-62.132l0,-28.973c0,-34.308 18.983,-62.132 42.39,-62.132l10.331,0c23.407,0 42.39,27.824 42.39,62.132z" fill="#F7D789" id="svg_15"/>
   <path d="m381.514,337.051c-14.142,-22.375 -24.104,-34.509 -24.104,-34.509c-3.095,-4.181 -6.493,-8.163 -10.148,-11.888l-33.936,-24.302c-6.283,-2.978 -12.858,-5.442 -19.724,-7.31l-0.012,0c-2.172,47.74 -41.562,85.787 -89.863,85.787c-48.289,0 -87.679,-38.047 -89.851,-85.787c-6.843,1.869 -13.453,4.333 -19.783,7.334l-33.925,24.302c-3.644,3.714 -7.007,7.661 -10.148,11.865c0,0 -9.973,12.145 -24.092,34.509c-6.329,10.018 -13.476,22.07 -20.927,36.014l397.428,0c-7.45,-13.956 -14.609,-26.007 -20.915,-36.015z" fill="#e02a1d" id="svg_16"/>
   <path d="m363.974,337.051c-0.07,-0.117 -0.117,-0.222 -0.187,-0.327c-9.261,-14.656 -20.32,-28.074 -32.874,-40.033l-31.846,-30.34c-1.904,-1.051 -3.83,-2.02 -5.792,-2.896c-26.684,55.915 -121.884,99.03 -179.095,0c-1.962,0.899 -3.901,1.869 -5.804,2.908l-31.846,30.328c-12.554,11.958 -23.636,25.376 -32.897,40.033c-0.047,0.105 -0.117,0.21 -0.199,0.327c-6.33,10.008 -13.476,22.072 -20.915,36.015l362.394,0c-7.451,-13.944 -14.598,-26.007 -20.939,-36.015z" fill="#f44336" id="svg_17"/>
   <path d="m211.736,320.533l-16.011,0c-51.552,0 -93.493,-41.94 -93.493,-93.492l0,-30.638c0,-51.552 41.941,-93.492 93.493,-93.492l16.011,0c51.552,0 93.493,41.94 93.493,93.492l0,30.638c0,51.552 -41.941,93.492 -93.493,93.492zm-16.011,-207.622c-46.038,0 -83.493,37.455 -83.493,83.492l0,30.638c0,46.038 37.455,83.492 83.493,83.492l16.011,0c46.038,0 83.493,-37.455 83.493,-83.492l0,-30.638c0,-46.038 -37.455,-83.492 -83.493,-83.492l-16.011,0l0,0z" fill="#666666" id="svg_18"/>
   <path d="m211.301,298.978l-15.143,0c-37.017,0 -67.132,-30.115 -67.132,-67.132l0,-28.973c0,-37.017 30.115,-67.132 67.132,-67.132l15.143,0c37.017,0 67.132,30.115 67.132,67.132l0,28.973c0,37.017 -30.115,67.132 -67.132,67.132zm-15.142,-153.237c-31.502,0 -57.132,25.629 -57.132,57.132l0,28.973c0,31.503 25.629,57.132 57.132,57.132l15.142,0c31.502,0 57.132,-25.629 57.132,-57.132l0,-28.973c0,-31.502 -25.629,-57.132 -57.132,-57.132l-15.142,0l0,0z" fill="#666666" id="svg_19"/>
   <path d="m185.346,228.224c-2.761,0 -5,-2.239 -5,-5l0,-34.883c0,-2.761 2.239,-5 5,-5s5,2.239 5,5l0,34.883c0,2.762 -2.239,5 -5,5z" fill="#666666" id="svg_20"/>
   <path d="m222.115,228.224c-2.761,0 -5,-2.239 -5,-5l0,-34.883c0,-2.761 2.239,-5 5,-5s5,2.239 5,5l0,34.883c0,2.762 -2.239,5 -5,5z" fill="#666666" id="svg_21"/>
   <path d="m402.429,378.066l-397.428,0c-1.756,0 -3.384,-0.921 -4.288,-2.428c-0.904,-1.506 -0.951,-3.376 -0.124,-4.926c6.678,-12.518 13.782,-24.742 21.113,-36.334c12.032,-19.066 39.505,-55.647 66.131,-71.789c2.166,-1.313 4.973,-0.798 6.533,1.199c26.504,33.941 66.369,53.408 109.372,53.408c42.914,0 82.716,-19.388 109.201,-53.192c1.572,-2.005 4.399,-2.508 6.565,-1.17c27.364,16.913 55.293,54.197 66.238,71.549c7.429,11.79 14.527,24.012 21.098,36.329c0.827,1.55 0.78,3.419 -0.124,4.926c-0.902,1.506 -2.53,2.428 -4.287,2.428zm-389.025,-10l380.62,0c-5.309,-9.608 -10.922,-19.115 -16.741,-28.35c-11.601,-18.392 -36.4,-50.137 -59.361,-65.97c-28.355,34.027 -69.712,53.45 -114.184,53.45c-44.582,0 -86.013,-19.51 -114.39,-53.697c-23.892,16.2 -48.188,48.784 -59.192,66.22c-5.76,9.109 -11.376,18.613 -16.752,28.347z" fill="#333333" id="svg_22"/>
   <path d="m113.763,356.853c-1.391,0 -2.774,-0.577 -3.763,-1.706l-52.665,-60.125c-1.819,-2.077 -1.61,-5.236 0.467,-7.056c2.077,-1.819 5.235,-1.61 7.056,0.467l52.665,60.125c1.819,2.077 1.61,5.236 -0.467,7.056c-0.949,0.832 -2.124,1.239 -3.293,1.239z" fill="#333333" id="svg_23"/>
   <path d="m275.078,378.066c-1.169,0 -2.343,-0.408 -3.292,-1.238c-2.078,-1.819 -2.287,-4.978 -0.468,-7.056l37.405,-42.718c1.819,-2.078 4.978,-2.287 7.056,-0.468s2.287,4.978 0.468,7.056l-37.405,42.718c-0.988,1.129 -2.373,1.706 -3.764,1.706z" fill="#333333" id="svg_24"/>
   <path d="m330.467,314.819c-1.169,0 -2.344,-0.408 -3.292,-1.239c-2.077,-1.819 -2.286,-4.978 -0.467,-7.056l15.655,-17.875c1.819,-2.078 4.978,-2.287 7.056,-0.467c2.077,1.819 2.286,4.978 0.467,7.056l-15.655,17.875c-0.989,1.129 -2.373,1.706 -3.764,1.706z" fill="#333333" id="svg_25"/>
   <circle cx="229.882" cy="276.399" r="11.333" fill="#8fcdf7" id="svg_26"/>
   <path d="m229.882,292.733c-9.006,0 -16.333,-7.327 -16.333,-16.333s7.327,-16.333 16.333,-16.333s16.333,7.327 16.333,16.333s-7.327,16.333 -16.333,16.333zm0,-22.667c-3.492,0 -6.333,2.841 -6.333,6.333s2.841,6.333 6.333,6.333s6.333,-2.841 6.333,-6.333s-2.841,-6.333 -6.333,-6.333z" fill="#666666" id="svg_27"/>
  </g>
  <g id="svg_28"/>
  <g id="svg_29"/>
  <g id="svg_30"/>
  <g id="svg_31"/>
  <g id="svg_32"/>
  <g id="svg_33"/>
  <g id="svg_34"/>
  <g id="svg_35"/>
  <g id="svg_36"/>
  <g id="svg_37"/>
  <g id="svg_38"/>
  <g id="svg_39"/>
  <g id="svg_40"/>
  <g id="svg_41"/>
  <g id="svg_42"/>
 </g>
</svg>